STARTFONT 2.1
FONT -DEC-Terminal-Bold-R-Wide--14-140-75-75-C-120-ISO8859-1
SIZE 14 75 75
FONTBOUNDINGBOX 12 14 0 -2

STARTPROPERTIES 24
FOUNDRY "DEC"
FAMILY_NAME "Terminal"
WEIGHT_NAME "Bold"
SLANT "R"
SETWIDTH_NAME "Wide"
ADD_STYLE_NAME ""
PIXEL_SIZE 14
POINT_SIZE 140
RESOLUTION_X 75
RESOLUTION_Y 75
SPACING "C"
AVERAGE_WIDTH 120
CHARSET_REGISTRY "ISO8859"
CHARSET_ENCODING "1"
CAP_HEIGHT 9
X_HEIGHT 7
COPYRIGHT "Copyright (c) 1991 Digital Equipment Corporation. All Rights Reserved."
_DEC_PRODUCTINFO "DECterm Fonts V2.2, 11-Nov-1991"
FULL_NAME "Terminal Bold Wide"
WEIGHT 10
QUAD_WIDTH 12
DEFAULT_CHAR 159
FONT_DESCENT 2
FONT_ASCENT 12
ENDPROPERTIES

CHARS 195

STARTCHAR space
ENCODING 32
SWIDTH 860 0
DWIDTH 12 0
BBX 12 14 0 -2
BITMAP
0000
0000
0000
0000
0000
0000
0000
0000
0000
0000
0000
0000
0000
0000
ENDCHAR

STARTCHAR exclam
ENCODING 33
SWIDTH 860 0
DWIDTH 12 0
BBX 12 14 0 -2
BITMAP
0000
0000
0000
0F00
0F00
0F00
0F00
0F00
0F00
0000
0F00
0F00
0000
0000
ENDCHAR

STARTCHAR quotedbl
ENCODING 34
SWIDTH 860 0
DWIDTH 12 0
BBX 12 14 0 -2
BITMAP
0000
0000
79E0
79E0
79E0
0000
0000
0000
0000
0000
0000
0000
0000
0000
ENDCHAR

STARTCHAR numbersign
ENCODING 35
SWIDTH 860 0
DWIDTH 12 0
BBX 12 14 0 -2
BITMAP
0000
0000
0000
1980
7FE0
7FE0
1980
1980
7FE0
7FE0
1980
0000
0000
0000
ENDCHAR

STARTCHAR dollar
ENCODING 36
SWIDTH 860 0
DWIDTH 12 0
BBX 12 14 0 -2
BITMAP
0000
0000
0600
0600
3FC0
79E0
7800
3FC0
01E0
79E0
3FC0
0600
0600
0000
ENDCHAR

STARTCHAR percent
ENCODING 37
SWIDTH 860 0
DWIDTH 12 0
BBX 12 14 0 -2
BITMAP
0000
0000
0000
3C70
6EE0
3DC0
0380
0700
0E00
1DE0
3B70
71E0
0000
0000
ENDCHAR

STARTCHAR ampersand
ENCODING 38
SWIDTH 860 0
DWIDTH 12 0
BBX 12 14 0 -2
BITMAP
0000
0000
0000
1F00
3B80
3B80
1F00
3F60
77C0
7380
7FC0
3EE0
0000
0000
ENDCHAR

STARTCHAR quoteright
ENCODING 39
SWIDTH 860 0
DWIDTH 12 0
BBX 12 14 0 -2
BITMAP
0000
0000
0780
0780
0380
0F00
0000
0000
0000
0000
0000
0000
0000
0000
ENDCHAR

STARTCHAR parenleft
ENCODING 40
SWIDTH 860 0
DWIDTH 12 0
BBX 12 14 0 -2
BITMAP
0000
0000
0F80
1E00
3C00
7800
7800
7800
7800
7800
3C00
1E00
0F80
0000
ENDCHAR

STARTCHAR parenright
ENCODING 41
SWIDTH 860 0
DWIDTH 12 0
BBX 12 14 0 -2
BITMAP
0000
0000
1F00
0780
03C0
01E0
01E0
01E0
01E0
01E0
03C0
0780
1F00
0000
ENDCHAR

STARTCHAR asterisk
ENCODING 42
SWIDTH 860 0
DWIDTH 12 0
BBX 12 14 0 -2
BITMAP
0000
0000
0000
0600
6660
1F80
1F80
1F80
6660
0600
0000
0000
0000
0000
ENDCHAR

STARTCHAR plus
ENCODING 43
SWIDTH 860 0
DWIDTH 12 0
BBX 12 14 0 -2
BITMAP
0000
0000
0000
0000
0000
0F00
0F00
7FE0
7FE0
0F00
0F00
0000
0000
0000
ENDCHAR

STARTCHAR comma
ENCODING 44
SWIDTH 860 0
DWIDTH 12 0
BBX 12 14 0 -2
BITMAP
0000
0000
0000
0000
0000
0000
0000
0000
0000
0000
0F00
0F00
0700
0E00
ENDCHAR

STARTCHAR minus
ENCODING 45
SWIDTH 860 0
DWIDTH 12 0
BBX 12 14 0 -2
BITMAP
0000
0000
0000
0000
0000
0000
0000
7FE0
7FE0
0000
0000
0000
0000
0000
ENDCHAR

STARTCHAR period
ENCODING 46
SWIDTH 860 0
DWIDTH 12 0
BBX 12 14 0 -2
BITMAP
0000
0000
0000
0000
0000
0000
0000
0000
0000
0000
0F00
0F00
0000
0000
ENDCHAR

STARTCHAR slash
ENCODING 47
SWIDTH 860 0
DWIDTH 12 0
BBX 12 14 0 -2
BITMAP
0000
0000
01E0
01E0
03E0
03C0
0780
0F00
1E00
3C00
3C00
7800
7800
0000
ENDCHAR

STARTCHAR zero
ENCODING 48
SWIDTH 860 0
DWIDTH 12 0
BBX 12 14 0 -2
BITMAP
0000
0000
0000
0F00
3FC0
79E0
79E0
79E0
79E0
79E0
3FC0
0F00
0000
0000
ENDCHAR

STARTCHAR one
ENCODING 49
SWIDTH 860 0
DWIDTH 12 0
BBX 12 14 0 -2
BITMAP
0000
0000
0000
0700
0F00
3F00
0F00
0F00
0F00
0F00
0F00
7FE0
0000
0000
ENDCHAR

STARTCHAR two
ENCODING 50
SWIDTH 860 0
DWIDTH 12 0
BBX 12 14 0 -2
BITMAP
0000
0000
0000
3FC0
79E0
79E0
01E0
07E0
1FC0
7F00
7C00
7FE0
0000
0000
ENDCHAR

STARTCHAR three
ENCODING 51
SWIDTH 860 0
DWIDTH 12 0
BBX 12 14 0 -2
BITMAP
0000
0000
0000
3FC0
79E0
79E0
01E0
07C0
01E0
79E0
79E0
3FC0
0000
0000
ENDCHAR

STARTCHAR four
ENCODING 52
SWIDTH 860 0
DWIDTH 12 0
BBX 12 14 0 -2
BITMAP
0000
0000
0000
0380
0780
0F80
1F80
3F80
7780
6780
7FE0
0780
0000
0000
ENDCHAR

STARTCHAR five
ENCODING 53
SWIDTH 860 0
DWIDTH 12 0
BBX 12 14 0 -2
BITMAP
0000
0000
0000
7FE0
7800
7800
7FC0
79E0
01E0
79E0
79E0
3FC0
0000
0000
ENDCHAR

STARTCHAR six
ENCODING 54
SWIDTH 860 0
DWIDTH 12 0
BBX 12 14 0 -2
BITMAP
0000
0000
0000
3FC0
79E0
7800
7FC0
79E0
79E0
79E0
79E0
3FC0
0000
0000
ENDCHAR

STARTCHAR seven
ENCODING 55
SWIDTH 860 0
DWIDTH 12 0
BBX 12 14 0 -2
BITMAP
0000
0000
0000
7FE0
01E0
01E0
03C0
0780
0F00
1E00
1E00
1E00
0000
0000
ENDCHAR

STARTCHAR eight
ENCODING 56
SWIDTH 860 0
DWIDTH 12 0
BBX 12 14 0 -2
BITMAP
0000
0000
0000
3FC0
79E0
79E0
79E0
3FC0
79E0
79E0
79E0
3FC0
0000
0000
ENDCHAR

STARTCHAR nine
ENCODING 57
SWIDTH 860 0
DWIDTH 12 0
BBX 12 14 0 -2
BITMAP
0000
0000
0000
3FC0
79E0
79E0
79E0
79E0
3FE0
01E0
79E0
3FC0
0000
0000
ENDCHAR

STARTCHAR colon
ENCODING 58
SWIDTH 860 0
DWIDTH 12 0
BBX 12 14 0 -2
BITMAP
0000
0000
0000
0000
0000
0F00
0F00
0000
0000
0000
0F00
0F00
0000
0000
ENDCHAR

STARTCHAR semicolon
ENCODING 59
SWIDTH 860 0
DWIDTH 12 0
BBX 12 14 0 -2
BITMAP
0000
0000
0000
0000
0000
0F00
0F00
0000
0000
0000
0F00
0F00
3E00
0000
ENDCHAR

STARTCHAR less
ENCODING 60
SWIDTH 860 0
DWIDTH 12 0
BBX 12 14 0 -2
BITMAP
0000
0000
0000
03C0
0780
0F00
1E00
3C00
1E00
0F00
0780
03C0
0000
0000
ENDCHAR

STARTCHAR equal
ENCODING 61
SWIDTH 860 0
DWIDTH 12 0
BBX 12 14 0 -2
BITMAP
0000
0000
0000
0000
0000
3FC0
3FC0
0000
3FC0
3FC0
0000
0000
0000
0000
ENDCHAR

STARTCHAR greater
ENCODING 62
SWIDTH 860 0
DWIDTH 12 0
BBX 12 14 0 -2
BITMAP
0000
0000
0000
3C00
1E00
0F00
0780
03C0
0780
0F00
1E00
3C00
0000
0000
ENDCHAR

STARTCHAR question
ENCODING 63
SWIDTH 860 0
DWIDTH 12 0
BBX 12 14 0 -2
BITMAP
0000
0000
0000
3FC0
79E0
79E0
03C0
0F80
1E00
0000
1E00
1E00
0000
0000
ENDCHAR

STARTCHAR at
ENCODING 64
SWIDTH 860 0
DWIDTH 12 0
BBX 12 14 0 -2
BITMAP
0000
0000
0000
3FC0
7860
7860
79E0
7B60
7BE0
79C0
7800
3FE0
0000
0000
ENDCHAR

STARTCHAR A
ENCODING 65
SWIDTH 860 0
DWIDTH 12 0
BBX 12 14 0 -2
BITMAP
0000
0000
0000
0F00
3FC0
79E0
79E0
79E0
7FE0
79E0
79E0
79E0
0000
0000
ENDCHAR

STARTCHAR B
ENCODING 66
SWIDTH 860 0
DWIDTH 12 0
BBX 12 14 0 -2
BITMAP
0000
0000
0000
7FC0
79E0
79E0
79E0
7FC0
79E0
79E0
79E0
7FC0
0000
0000
ENDCHAR

STARTCHAR C
ENCODING 67
SWIDTH 860 0
DWIDTH 12 0
BBX 12 14 0 -2
BITMAP
0000
0000
0000
3FC0
79E0
79E0
7800
7800
7800
79E0
79E0
3FC0
0000
0000
ENDCHAR

STARTCHAR D
ENCODING 68
SWIDTH 860 0
DWIDTH 12 0
BBX 12 14 0 -2
BITMAP
0000
0000
0000
7FC0
79E0
79E0
79E0
79E0
79E0
79E0
79E0
7FC0
0000
0000
ENDCHAR

STARTCHAR E
ENCODING 69
SWIDTH 860 0
DWIDTH 12 0
BBX 12 14 0 -2
BITMAP
0000
0000
0000
3FE0
3C00
3C00
3C00
3FC0
3C00
3C00
3C00
3FE0
0000
0000
ENDCHAR

STARTCHAR F
ENCODING 70
SWIDTH 860 0
DWIDTH 12 0
BBX 12 14 0 -2
BITMAP
0000
0000
0000
3FE0
3C00
3C00
3C00
3FC0
3C00
3C00
3C00
3C00
0000
0000
ENDCHAR

STARTCHAR G
ENCODING 71
SWIDTH 860 0
DWIDTH 12 0
BBX 12 14 0 -2
BITMAP
0000
0000
0000
3FC0
79E0
79E0
7800
7BE0
79E0
79E0
79E0
3FE0
0000
0000
ENDCHAR

STARTCHAR H
ENCODING 72
SWIDTH 860 0
DWIDTH 12 0
BBX 12 14 0 -2
BITMAP
0000
0000
0000
79E0
79E0
79E0
79E0
7FE0
79E0
79E0
79E0
79E0
0000
0000
ENDCHAR

STARTCHAR I
ENCODING 73
SWIDTH 860 0
DWIDTH 12 0
BBX 12 14 0 -2
BITMAP
0000
0000
0000
7FE0
0F00
0F00
0F00
0F00
0F00
0F00
0F00
7FE0
0000
0000
ENDCHAR

STARTCHAR J
ENCODING 74
SWIDTH 860 0
DWIDTH 12 0
BBX 12 14 0 -2
BITMAP
0000
0000
0000
07E0
01E0
01E0
01E0
01E0
01E0
79E0
79E0
3FC0
0000
0000
ENDCHAR

STARTCHAR K
ENCODING 75
SWIDTH 860 0
DWIDTH 12 0
BBX 12 14 0 -2
BITMAP
0000
0000
0000
78E0
79E0
7BC0
7F80
7F00
7F80
7BC0
79E0
79E0
0000
0000
ENDCHAR

STARTCHAR L
ENCODING 76
SWIDTH 860 0
DWIDTH 12 0
BBX 12 14 0 -2
BITMAP
0000
0000
0000
3C00
3C00
3C00
3C00
3C00
3C00
3C00
3C00
3FE0
0000
0000
ENDCHAR

STARTCHAR M
ENCODING 77
SWIDTH 860 0
DWIDTH 12 0
BBX 12 14 0 -2
BITMAP
0000
0000
0000
70E0
79E0
7FE0
7FE0
7FE0
76E0
76E0
70E0
70E0
0000
0000
ENDCHAR

STARTCHAR N
ENCODING 78
SWIDTH 860 0
DWIDTH 12 0
BBX 12 14 0 -2
BITMAP
0000
0000
0000
61E0
71E0
79E0
7FE0
7FE0
7FE0
79E0
78E0
7860
0000
0000
ENDCHAR

STARTCHAR O
ENCODING 79
SWIDTH 860 0
DWIDTH 12 0
BBX 12 14 0 -2
BITMAP
0000
0000
0000
3FC0
79E0
79E0
79E0
79E0
79E0
79E0
79E0
3FC0
0000
0000
ENDCHAR

STARTCHAR P
ENCODING 80
SWIDTH 860 0
DWIDTH 12 0
BBX 12 14 0 -2
BITMAP
0000
0000
0000
7FC0
79E0
79E0
79E0
79E0
79E0
7FC0
7800
7800
0000
0000
ENDCHAR

STARTCHAR Q
ENCODING 81
SWIDTH 860 0
DWIDTH 12 0
BBX 12 14 0 -2
BITMAP
0000
0000
0000
3FC0
79E0
79E0
79E0
79E0
79E0
79E0
79E0
3FC0
01E0
0000
ENDCHAR

STARTCHAR R
ENCODING 82
SWIDTH 860 0
DWIDTH 12 0
BBX 12 14 0 -2
BITMAP
0000
0000
0000
7FC0
79E0
79E0
79E0
79E0
7FC0
79E0
79E0
79E0
0000
0000
ENDCHAR

STARTCHAR S
ENCODING 83
SWIDTH 860 0
DWIDTH 12 0
BBX 12 14 0 -2
BITMAP
0000
0000
0000
3FC0
79E0
7800
7FC0
3FE0
01E0
79E0
79E0
3FC0
0000
0000
ENDCHAR

STARTCHAR T
ENCODING 84
SWIDTH 860 0
DWIDTH 12 0
BBX 12 14 0 -2
BITMAP
0000
0000
0000
7FE0
0F00
0F00
0F00
0F00
0F00
0F00
0F00
0F00
0000
0000
ENDCHAR

STARTCHAR U
ENCODING 85
SWIDTH 860 0
DWIDTH 12 0
BBX 12 14 0 -2
BITMAP
0000
0000
0000
79E0
79E0
79E0
79E0
79E0
79E0
79E0
79E0
3FC0
0000
0000
ENDCHAR

STARTCHAR V
ENCODING 86
SWIDTH 860 0
DWIDTH 12 0
BBX 12 14 0 -2
BITMAP
0000
0000
0000
79E0
79E0
79E0
79E0
79E0
39C0
1F80
0F00
0600
0000
0000
ENDCHAR

STARTCHAR W
ENCODING 87
SWIDTH 860 0
DWIDTH 12 0
BBX 12 14 0 -2
BITMAP
0000
0000
0000
70E0
70E0
70E0
76E0
76E0
7FE0
7FE0
79E0
30C0
0000
0000
ENDCHAR

STARTCHAR X
ENCODING 88
SWIDTH 860 0
DWIDTH 12 0
BBX 12 14 0 -2
BITMAP
0000
0000
0000
79E0
79E0
39C0
1F80
0F00
1F80
39C0
79E0
79E0
0000
0000
ENDCHAR

STARTCHAR Y
ENCODING 89
SWIDTH 860 0
DWIDTH 12 0
BBX 12 14 0 -2
BITMAP
0000
0000
0000
79E0
79E0
79E0
39C0
1F80
0F00
0F00
0F00
0F00
0000
0000
ENDCHAR

STARTCHAR Z
ENCODING 90
SWIDTH 860 0
DWIDTH 12 0
BBX 12 14 0 -2
BITMAP
0000
0000
0000
7FE0
01E0
03C0
0780
0F00
1E00
3C00
7800
7FE0
0000
0000
ENDCHAR

STARTCHAR bracketleft
ENCODING 91
SWIDTH 860 0
DWIDTH 12 0
BBX 12 14 0 -2
BITMAP
0000
0000
3FC0
3C00
3C00
3C00
3C00
3C00
3C00
3C00
3C00
3C00
3FC0
0000
ENDCHAR

STARTCHAR backslash
ENCODING 92
SWIDTH 860 0
DWIDTH 12 0
BBX 12 14 0 -2
BITMAP
0000
0000
7800
7800
3C00
3C00
1E00
0F00
0780
03C0
03C0
01E0
01E0
0000
ENDCHAR

STARTCHAR bracketright
ENCODING 93
SWIDTH 860 0
DWIDTH 12 0
BBX 12 14 0 -2
BITMAP
0000
0000
7F80
0780
0780
0780
0780
0780
0780
0780
0780
0780
7F80
0000
ENDCHAR

STARTCHAR asciicircum
ENCODING 94
SWIDTH 860 0
DWIDTH 12 0
BBX 12 14 0 -2
BITMAP
0000
0000
0000
0000
0000
1F00
3B80
71C0
0000
0000
0000
0000
0000
0000
ENDCHAR

STARTCHAR underscore
ENCODING 95
SWIDTH 860 0
DWIDTH 12 0
BBX 12 14 0 -2
BITMAP
0000
0000
0000
0000
0000
0000
0000
0000
0000
0000
7FE0
7FE0
0000
0000
ENDCHAR

STARTCHAR quoteleft
ENCODING 96
SWIDTH 860 0
DWIDTH 12 0
BBX 12 14 0 -2
BITMAP
0000
0000
1E00
1E00
1C00
0F00
0000
0000
0000
0000
0000
0000
0000
0000
ENDCHAR

STARTCHAR a
ENCODING 97
SWIDTH 860 0
DWIDTH 12 0
BBX 12 14 0 -2
BITMAP
0000
0000
0000
0000
0000
3FC0
01E0
3FE0
79E0
79E0
79E0
3EF0
0000
0000
ENDCHAR

STARTCHAR b
ENCODING 98
SWIDTH 860 0
DWIDTH 12 0
BBX 12 14 0 -2
BITMAP
0000
0000
0000
7800
7800
7BC0
7DE0
79E0
79E0
79E0
79E0
7FC0
0000
0000
ENDCHAR

STARTCHAR c
ENCODING 99
SWIDTH 860 0
DWIDTH 12 0
BBX 12 14 0 -2
BITMAP
0000
0000
0000
0000
0000
3FC0
79E0
79E0
7800
79E0
79E0
3FC0
0000
0000
ENDCHAR

STARTCHAR d
ENCODING 100
SWIDTH 860 0
DWIDTH 12 0
BBX 12 14 0 -2
BITMAP
0000
0000
0000
01E0
01E0
3DE0
7BE0
79E0
79E0
79E0
79E0
3FE0
0000
0000
ENDCHAR

STARTCHAR e
ENCODING 101
SWIDTH 860 0
DWIDTH 12 0
BBX 12 14 0 -2
BITMAP
0000
0000
0000
0000
0000
3FC0
79E0
79E0
7FE0
7800
79E0
3FC0
0000
0000
ENDCHAR

STARTCHAR f
ENCODING 102
SWIDTH 860 0
DWIDTH 12 0
BBX 12 14 0 -2
BITMAP
0000
0000
0000
0FE0
1E00
1E00
7FC0
1E00
1E00
1E00
1E00
1E00
0000
0000
ENDCHAR

STARTCHAR g
ENCODING 103
SWIDTH 860 0
DWIDTH 12 0
BBX 12 14 0 -2
BITMAP
0000
0000
0000
0000
0000
3FE0
79E0
79E0
79E0
79E0
3FE0
01E0
01C0
3F80
ENDCHAR

STARTCHAR h
ENCODING 104
SWIDTH 860 0
DWIDTH 12 0
BBX 12 14 0 -2
BITMAP
0000
0000
0000
7800
7800
7FC0
79E0
79E0
79E0
79E0
79E0
79E0
0000
0000
ENDCHAR

STARTCHAR i
ENCODING 105
SWIDTH 860 0
DWIDTH 12 0
BBX 12 14 0 -2
BITMAP
0000
0000
0000
0F00
0F00
0000
3F00
0F00
0F00
0F00
0F00
7FE0
0000
0000
ENDCHAR

STARTCHAR j
ENCODING 106
SWIDTH 860 0
DWIDTH 12 0
BBX 12 14 0 -2
BITMAP
0000
0000
0000
0780
0780
0000
3F80
0780
0780
0780
0780
0780
0780
7F00
ENDCHAR

STARTCHAR k
ENCODING 107
SWIDTH 860 0
DWIDTH 12 0
BBX 12 14 0 -2
BITMAP
0000
0000
0000
7800
7800
7800
79C0
7B80
7F00
7F80
7BC0
79E0
0000
0000
ENDCHAR

STARTCHAR l
ENCODING 108
SWIDTH 860 0
DWIDTH 12 0
BBX 12 14 0 -2
BITMAP
0000
0000
0000
3F00
0F00
0F00
0F00
0F00
0F00
0F00
0F00
7FE0
0000
0000
ENDCHAR

STARTCHAR m
ENCODING 109
SWIDTH 860 0
DWIDTH 12 0
BBX 12 14 0 -2
BITMAP
0000
0000
0000
0000
0000
70E0
79E0
7FE0
7FE0
76E0
76E0
70E0
0000
0000
ENDCHAR

STARTCHAR n
ENCODING 110
SWIDTH 860 0
DWIDTH 12 0
BBX 12 14 0 -2
BITMAP
0000
0000
0000
0000
0000
7BC0
7FE0
7DE0
79E0
79E0
79E0
79E0
0000
0000
ENDCHAR

STARTCHAR o
ENCODING 111
SWIDTH 860 0
DWIDTH 12 0
BBX 12 14 0 -2
BITMAP
0000
0000
0000
0000
0000
3FC0
79E0
79E0
79E0
79E0
79E0
3FC0
0000
0000
ENDCHAR

STARTCHAR p
ENCODING 112
SWIDTH 860 0
DWIDTH 12 0
BBX 12 14 0 -2
BITMAP
0000
0000
0000
0000
0000
7FC0
79E0
79E0
79E0
7DE0
7BC0
7800
7800
0000
ENDCHAR

STARTCHAR q
ENCODING 113
SWIDTH 860 0
DWIDTH 12 0
BBX 12 14 0 -2
BITMAP
0000
0000
0000
0000
0000
3FE0
79E0
79E0
79E0
7BE0
3DE0
01E0
01E0
0000
ENDCHAR

STARTCHAR r
ENCODING 114
SWIDTH 860 0
DWIDTH 12 0
BBX 12 14 0 -2
BITMAP
0000
0000
0000
0000
0000
7BC0
7FE0
79E0
7800
7800
7800
7800
0000
0000
ENDCHAR

STARTCHAR s
ENCODING 115
SWIDTH 860 0
DWIDTH 12 0
BBX 12 14 0 -2
BITMAP
0000
0000
0000
0000
0000
3FC0
79E0
7800
3FC0
01E0
79E0
3FC0
0000
0000
ENDCHAR

STARTCHAR t
ENCODING 116
SWIDTH 860 0
DWIDTH 12 0
BBX 12 14 0 -2
BITMAP
0000
0000
0000
1E00
1E00
7FC0
1E00
1E00
1E00
1E00
1E00
0FE0
0000
0000
ENDCHAR

STARTCHAR u
ENCODING 117
SWIDTH 860 0
DWIDTH 12 0
BBX 12 14 0 -2
BITMAP
0000
0000
0000
0000
0000
79E0
79E0
79E0
79E0
79E0
79E0
3FC0
0000
0000
ENDCHAR

STARTCHAR v
ENCODING 118
SWIDTH 860 0
DWIDTH 12 0
BBX 12 14 0 -2
BITMAP
0000
0000
0000
0000
0000
79E0
79E0
79E0
39C0
1F80
0F00
0600
0000
0000
ENDCHAR

STARTCHAR w
ENCODING 119
SWIDTH 860 0
DWIDTH 12 0
BBX 12 14 0 -2
BITMAP
0000
0000
0000
0000
0000
70E0
76E0
76E0
7FE0
7FE0
39C0
1080
0000
0000
ENDCHAR

STARTCHAR x
ENCODING 120
SWIDTH 860 0
DWIDTH 12 0
BBX 12 14 0 -2
BITMAP
0000
0000
0000
0000
0000
79E0
39C0
1F80
1F80
3FC0
79E0
79E0
0000
0000
ENDCHAR

STARTCHAR y
ENCODING 121
SWIDTH 860 0
DWIDTH 12 0
BBX 12 14 0 -2
BITMAP
0000
0000
0000
0000
0000
79E0
79E0
79E0
79E0
79E0
3FE0
01E0
01E0
3FC0
ENDCHAR

STARTCHAR z
ENCODING 122
SWIDTH 860 0
DWIDTH 12 0
BBX 12 14 0 -2
BITMAP
0000
0000
0000
0000
0000
7FE0
03C0
0780
0F00
1E00
3C00
7FE0
0000
0000
ENDCHAR

STARTCHAR braceleft
ENCODING 123
SWIDTH 860 0
DWIDTH 12 0
BBX 12 14 0 -2
BITMAP
0000
0000
0F80
1E00
1E00
1E00
0F00
7E00
0F00
1E00
1E00
1E00
0F80
0000
ENDCHAR

STARTCHAR bar
ENCODING 124
SWIDTH 860 0
DWIDTH 12 0
BBX 12 14 0 -2
BITMAP
0000
0000
1E00
1E00
1E00
1E00
1E00
1E00
1E00
1E00
1E00
1E00
1E00
0000
ENDCHAR

STARTCHAR braceright
ENCODING 125
SWIDTH 860 0
DWIDTH 12 0
BBX 12 14 0 -2
BITMAP
0000
0000
3E00
0F00
0F00
0F00
1E00
0FC0
1E00
0F00
0F00
0F00
3E00
0000
ENDCHAR

STARTCHAR asciitilde
ENCODING 126
SWIDTH 860 0
DWIDTH 12 0
BBX 12 14 0 -2
BITMAP
0000
0000
0000
0000
0000
3C60
7FE0
63C0
0000
0000
0000
0000
0000
0000
ENDCHAR

STARTCHAR OE
ENCODING 128
SWIDTH 860 0
DWIDTH 12 0
BBX 12 14 0 -2
BITMAP
0000
0000
0000
7FF0
E780
E780
E780
E7E0
E780
E780
E780
7FF0
0000
0000
ENDCHAR

STARTCHAR oe
ENCODING 129
SWIDTH 860 0
DWIDTH 12 0
BBX 12 14 0 -2
BITMAP
0000
0000
0000
0000
0000
7FE0
E730
E730
E7F0
E700
E730
7FE0
0000
0000
ENDCHAR

STARTCHAR Ydieresis
ENCODING 130
SWIDTH 860 0
DWIDTH 12 0
BBX 12 14 0 -2
BITMAP
0000
79E0
79E0
0000
79E0
79E0
79E0
39C0
1F80
0F00
0F00
0F00
0000
0000
ENDCHAR

STARTCHAR Error
ENCODING 159
SWIDTH 860 0
DWIDTH 12 0
BBX 12 14 0 -2
BITMAP
0000
1FC0
7FF0
FFF0
F0F0
F000
FC00
7F00
3F80
0F80
0F80
0000
0F80
0F80
ENDCHAR

STARTCHAR space
ENCODING 160
SWIDTH 860 0
DWIDTH 12 0
BBX 12 14 0 -2
BITMAP
0000
0000
0000
0000
0000
0000
0000
0000
0000
0000
0000
0000
0000
0000
ENDCHAR

STARTCHAR exclamdown
ENCODING 161
SWIDTH 860 0
DWIDTH 12 0
BBX 12 14 0 -2
BITMAP
0000
0000
0000
1E00
1E00
0000
1E00
1E00
1E00
1E00
1E00
1E00
1E00
0000
ENDCHAR

STARTCHAR cent
ENCODING 162
SWIDTH 860 0
DWIDTH 12 0
BBX 12 14 0 -2
BITMAP
0000
0000
0000
0780
0780
3FE0
7870
7800
7870
3FE0
0780
0780
0000
0000
ENDCHAR

STARTCHAR sterling
ENCODING 163
SWIDTH 860 0
DWIDTH 12 0
BBX 12 14 0 -2
BITMAP
0000
0000
0000
0FC0
1E60
1E60
1E00
7F80
1E00
1E00
3E60
77C0
0000
0000
ENDCHAR

STARTCHAR currency
ENCODING 164
SWIDTH 860 0
DWIDTH 12 0
BBX 12 14 0 -2
BITMAP
0000
0000
0000
0000
6060
3FC0
1F80
1980
1980
1F80
3FC0
6060
0000
0000
ENDCHAR

STARTCHAR yen
ENCODING 165
SWIDTH 860 0
DWIDTH 12 0
BBX 12 14 0 -2
BITMAP
0000
0000
0000
79E0
79E0
79E0
3FC0
7FE0
0F00
7FE0
0F00
0F00
0000
0000
ENDCHAR

STARTCHAR brokenbar
ENCODING 166
SWIDTH 860 0
DWIDTH 12 0
BBX 12 14 0 -2
BITMAP
0000
0000
1E00
1E00
1E00
1E00
0000
0000
0000
1E00
1E00
1E00
1E00
0000
ENDCHAR

STARTCHAR section
ENCODING 167
SWIDTH 860 0
DWIDTH 12 0
BBX 12 14 0 -2
BITMAP
0000
0000
3FC0
79E0
79E0
7C00
3F80
30C0
1FC0
03E0
79E0
79E0
3FC0
0000
ENDCHAR

STARTCHAR dieresis
ENCODING 168
SWIDTH 860 0
DWIDTH 12 0
BBX 12 14 0 -2
BITMAP
0000
0000
79E0
79E0
0000
0000
0000
0000
0000
0000
0000
0000
0000
0000
ENDCHAR

STARTCHAR copyright
ENCODING 169
SWIDTH 860 0
DWIDTH 12 0
BBX 12 14 0 -2
BITMAP
0000
0000
0F80
3060
2720
4F90
4D90
4C10
4D90
4F90
2720
3060
0F80
0000
ENDCHAR

STARTCHAR ordfeminine
ENCODING 170
SWIDTH 860 0
DWIDTH 12 0
BBX 12 14 0 -2
BITMAP
0000
0000
3FC0
01E0
3FE0
79E0
79E0
3FE0
0000
7FE0
0000
0000
0000
0000
ENDCHAR

STARTCHAR guillemotleft
ENCODING 171
SWIDTH 860 0
DWIDTH 12 0
BBX 12 14 0 -2
BITMAP
0000
0000
0000
0000
0000
0000
1CE0
39C0
7380
39C0
1CE0
0000
0000
0000
ENDCHAR

STARTCHAR logicalnot
ENCODING 172
SWIDTH 860 0
DWIDTH 12 0
BBX 12 14 0 -2
BITMAP
0000
0000
0000
0000
0000
0000
0000
7FE0
7FE0
01E0
0000
0000
0000
0000
ENDCHAR

STARTCHAR hyphen
ENCODING 173
SWIDTH 860 0
DWIDTH 12 0
BBX 12 14 0 -2
BITMAP
0000
0000
0000
0000
0000
0000
0000
1F80
1F80
0000
0000
0000
0000
0000
ENDCHAR

STARTCHAR registered
ENCODING 174
SWIDTH 860 0
DWIDTH 12 0
BBX 12 14 0 -2
BITMAP
0000
0000
0000
0F80
3060
2FA0
4CD0
4CD0
4F90
4D90
2CE0
3060
1F80
0000
ENDCHAR

STARTCHAR macron
ENCODING 175
SWIDTH 860 0
DWIDTH 12 0
BBX 12 14 0 -2
BITMAP
0000
0000
7FE0
7FE0
0000
0000
0000
0000
0000
0000
0000
0000
0000
0000
ENDCHAR

STARTCHAR degree
ENCODING 176
SWIDTH 860 0
DWIDTH 12 0
BBX 12 14 0 -2
BITMAP
0000
0000
0000
1F80
39C0
39C0
1F80
0000
0000
0000
0000
0000
0000
0000
ENDCHAR

STARTCHAR plusminus
ENCODING 177
SWIDTH 860 0
DWIDTH 12 0
BBX 12 14 0 -2
BITMAP
0000
0000
0000
0F00
0F00
7FE0
7FE0
0F00
0F00
0000
7FE0
7FE0
0000
0000
ENDCHAR

STARTCHAR twosuperior
ENCODING 178
SWIDTH 860 0
DWIDTH 12 0
BBX 12 14 0 -2
BITMAP
0000
0000
1F80
33C0
07C0
1F80
3E00
3FC0
0000
0000
0000
0000
0000
0000
ENDCHAR

STARTCHAR threesuperior
ENCODING 179
SWIDTH 860 0
DWIDTH 12 0
BBX 12 14 0 -2
BITMAP
0000
0000
3F80
03C0
0F80
03C0
33C0
1F80
0000
0000
0000
0000
0000
0000
ENDCHAR

STARTCHAR acute
ENCODING 180
SWIDTH 860 0
DWIDTH 12 0
BBX 12 14 0 -2
BITMAP
0000
0000
0F00
1E00
0000
0000
0000
0000
0000
0000
0000
0000
0000
0000
ENDCHAR

STARTCHAR mu
ENCODING 181
SWIDTH 860 0
DWIDTH 12 0
BBX 12 14 0 -2
BITMAP
0000
0000
0000
0000
0000
79E0
79E0
79E0
79E0
79E0
39E0
3FF0
6000
0000
ENDCHAR

STARTCHAR paragraph
ENCODING 182
SWIDTH 860 0
DWIDTH 12 0
BBX 12 14 0 -2
BITMAP
0000
0000
0FE0
3E60
7E60
7E60
7E60
7E60
3E60
0E60
0E60
0E60
0E60
0000
ENDCHAR

STARTCHAR periodcentered
ENCODING 183
SWIDTH 860 0
DWIDTH 12 0
BBX 12 14 0 -2
BITMAP
0000
0000
0000
0000
0000
0000
0F00
0F00
0000
0000
0000
0000
0000
0000
ENDCHAR

STARTCHAR cedilla
ENCODING 184
SWIDTH 860 0
DWIDTH 12 0
BBX 12 14 0 -2
BITMAP
0000
0000
0000
0000
0000
0000
0000
0000
0000
0000
1E00
1E00
7E00
0000
ENDCHAR

STARTCHAR onesuperior
ENCODING 185
SWIDTH 860 0
DWIDTH 12 0
BBX 12 14 0 -2
BITMAP
0000
0000
0F00
3F00
0F00
0F00
0F00
3FC0
0000
0000
0000
0000
0000
0000
ENDCHAR

STARTCHAR ordmasculine
ENCODING 186
SWIDTH 860 0
DWIDTH 12 0
BBX 12 14 0 -2
BITMAP
0000
0000
3FC0
79E0
79E0
79E0
79E0
3FC0
0000
7FE0
0000
0000
0000
0000
ENDCHAR

STARTCHAR guillemotright
ENCODING 187
SWIDTH 860 0
DWIDTH 12 0
BBX 12 14 0 -2
BITMAP
0000
0000
0000
0000
0000
0000
7380
39C0
1CE0
39C0
7380
0000
0000
0000
ENDCHAR

STARTCHAR onequarter
ENCODING 188
SWIDTH 860 0
DWIDTH 12 0
BBX 12 14 0 -2
BITMAP
0000
0000
1E00
7E00
1E10
7F60
0180
06E0
19E0
66E0
0FF0
00E0
0000
0000
ENDCHAR

STARTCHAR onehalf
ENCODING 189
SWIDTH 860 0
DWIDTH 12 0
BBX 12 14 0 -2
BITMAP
0000
0000
1E00
7E00
1E60
7F80
0600
1FC0
6660
01E0
0780
07E0
0000
0000
ENDCHAR

STARTCHAR threequarters
ENCODING 190
SWIDTH 860 0
DWIDTH 12 0
BBX 12 14 0 -2
BITMAP
0000
0000
7C00
0E00
1C60
0F80
7E60
04E0
1BE0
66E0
0FF0
00E0
0000
0000
ENDCHAR

STARTCHAR questiondown
ENCODING 191
SWIDTH 860 0
DWIDTH 12 0
BBX 12 14 0 -2
BITMAP
0000
0000
0000
0780
0780
0000
0780
0F80
3F00
7C00
79E0
79E0
3FC0
0000
ENDCHAR

STARTCHAR Agrave
ENCODING 192
SWIDTH 860 0
DWIDTH 12 0
BBX 12 14 0 -2
BITMAP
0000
0E00
0700
0000
0F00
3FC0
79E0
79E0
79E0
7FE0
79E0
79E0
0000
0000
ENDCHAR

STARTCHAR Aacute
ENCODING 193
SWIDTH 860 0
DWIDTH 12 0
BBX 12 14 0 -2
BITMAP
0000
0700
0E00
0000
0F00
3FC0
79E0
79E0
79E0
7FE0
79E0
79E0
0000
0000
ENDCHAR

STARTCHAR Acircumflex
ENCODING 194
SWIDTH 860 0
DWIDTH 12 0
BBX 12 14 0 -2
BITMAP
0000
0F00
1980
0000
0F00
3FC0
79E0
79E0
79E0
7FE0
79E0
79E0
0000
0000
ENDCHAR

STARTCHAR Atilde
ENCODING 195
SWIDTH 860 0
DWIDTH 12 0
BBX 12 14 0 -2
BITMAP
0000
3F60
73C0
0000
0F00
3FC0
79E0
79E0
79E0
7FE0
79E0
79E0
0000
0000
ENDCHAR

STARTCHAR Adieresis
ENCODING 196
SWIDTH 860 0
DWIDTH 12 0
BBX 12 14 0 -2
BITMAP
0000
79E0
79E0
0000
0F00
3FC0
79E0
79E0
79E0
7FE0
79E0
79E0
0000
0000
ENDCHAR

STARTCHAR Aring
ENCODING 197
SWIDTH 860 0
DWIDTH 12 0
BBX 12 14 0 -2
BITMAP
0000
1F80
30C0
1F80
0F00
3FC0
79E0
79E0
79E0
7FE0
79E0
79E0
0000
0000
ENDCHAR

STARTCHAR AE
ENCODING 198
SWIDTH 860 0
DWIDTH 12 0
BBX 12 14 0 -2
BITMAP
0000
0000
0000
3FF0
7F80
6780
6780
67E0
7F80
6780
6780
67F0
0000
0000
ENDCHAR

STARTCHAR Ccedilla
ENCODING 199
SWIDTH 860 0
DWIDTH 12 0
BBX 12 14 0 -2
BITMAP
0000
0000
0000
0000
3FC0
79E0
79E0
7800
7800
79E0
79E0
3FC0
0F00
1E00
ENDCHAR

STARTCHAR Egrave
ENCODING 200
SWIDTH 860 0
DWIDTH 12 0
BBX 12 14 0 -2
BITMAP
0000
0E00
0700
0000
7FE0
7800
7800
7F80
7800
7800
7800
7FE0
0000
0000
ENDCHAR

STARTCHAR Eacute
ENCODING 201
SWIDTH 860 0
DWIDTH 12 0
BBX 12 14 0 -2
BITMAP
0000
0700
0E00
0000
7FE0
7800
7800
7F80
7800
7800
7800
7FE0
0000
0000
ENDCHAR

STARTCHAR Ecircumflex
ENCODING 202
SWIDTH 860 0
DWIDTH 12 0
BBX 12 14 0 -2
BITMAP
0000
0F00
1980
0000
7FE0
7800
7800
7F80
7800
7800
7800
7FE0
0000
0000
ENDCHAR

STARTCHAR Edieresis
ENCODING 203
SWIDTH 860 0
DWIDTH 12 0
BBX 12 14 0 -2
BITMAP
0000
79E0
79E0
0000
7FE0
7800
7800
7F80
7800
7800
7800
7FE0
0000
0000
ENDCHAR

STARTCHAR Igrave
ENCODING 204
SWIDTH 860 0
DWIDTH 12 0
BBX 12 14 0 -2
BITMAP
0000
1E00
0F00
0000
7FE0
0F00
0F00
0F00
0F00
0F00
0F00
7FE0
0000
0000
ENDCHAR

STARTCHAR Iacute
ENCODING 205
SWIDTH 860 0
DWIDTH 12 0
BBX 12 14 0 -2
BITMAP
0000
0780
0F00
0000
7FE0
0F00
0F00
0F00
0F00
0F00
0F00
7FE0
0000
0000
ENDCHAR

STARTCHAR Icircumflex
ENCODING 206
SWIDTH 860 0
DWIDTH 12 0
BBX 12 14 0 -2
BITMAP
0000
0F00
1980
0000
7FE0
0F00
0F00
0F00
0F00
0F00
0F00
7FE0
0000
0000
ENDCHAR

STARTCHAR Idieresis
ENCODING 207
SWIDTH 860 0
DWIDTH 12 0
BBX 12 14 0 -2
BITMAP
0000
79E0
79E0
0000
7FE0
0F00
0F00
0F00
0F00
0F00
0F00
7FE0
0000
0000
ENDCHAR

STARTCHAR Eth
ENCODING 208
SWIDTH 860 0
DWIDTH 12 0
BBX 12 14 0 -2
BITMAP
0000
0000
1FC0
1E60
1E60
1E60
7F60
1E60
1E60
1E60
1E60
1FC0
0000
0000
ENDCHAR

STARTCHAR Ntilde
ENCODING 209
SWIDTH 860 0
DWIDTH 12 0
BBX 12 14 0 -2
BITMAP
0000
3E60
73C0
0000
71E0
79E0
7DE0
7FE0
7FE0
7BE0
79E0
78E0
0000
0000
ENDCHAR

STARTCHAR Ograve
ENCODING 210
SWIDTH 860 0
DWIDTH 12 0
BBX 12 14 0 -2
BITMAP
0000
0F00
0780
0000
3FC0
79E0
79E0
79E0
79E0
79E0
79E0
3FC0
0000
0000
ENDCHAR

STARTCHAR Oacute
ENCODING 211
SWIDTH 860 0
DWIDTH 12 0
BBX 12 14 0 -2
BITMAP
0000
03C0
0780
0000
3FC0
79E0
79E0
79E0
79E0
79E0
79E0
3FC0
0000
0000
ENDCHAR

STARTCHAR Ocircumflex
ENCODING 212
SWIDTH 860 0
DWIDTH 12 0
BBX 12 14 0 -2
BITMAP
0000
0F00
1980
0000
3FC0
79E0
79E0
79E0
79E0
79E0
79E0
3FC0
0000
0000
ENDCHAR

STARTCHAR Otilde
ENCODING 213
SWIDTH 860 0
DWIDTH 12 0
BBX 12 14 0 -2
BITMAP
0000
3EE0
73C0
0000
3FC0
79E0
79E0
79E0
79E0
79E0
79E0
3FC0
0000
0000
ENDCHAR

STARTCHAR Odieresis
ENCODING 214
SWIDTH 860 0
DWIDTH 12 0
BBX 12 14 0 -2
BITMAP
0000
79E0
79E0
0000
3FC0
79E0
79E0
79E0
79E0
79E0
79E0
3FC0
0000
0000
ENDCHAR

STARTCHAR multiply
ENCODING 215
SWIDTH 860 0
DWIDTH 12 0
BBX 12 14 0 -2
BITMAP
0000
0000
0000
0000
0000
3DE0
1FC0
0F80
1FC0
3DE0
0000
0000
0000
0000
ENDCHAR

STARTCHAR Oslash
ENCODING 216
SWIDTH 860 0
DWIDTH 12 0
BBX 12 14 0 -2
BITMAP
0000
0000
0020
3FC0
79E0
79E0
7BE0
7DE0
79E0
79E0
79E0
7FC0
8000
0000
ENDCHAR

STARTCHAR Ugrave
ENCODING 217
SWIDTH 860 0
DWIDTH 12 0
BBX 12 14 0 -2
BITMAP
0000
0E00
0700
0000
79E0
79E0
79E0
79E0
79E0
79E0
79E0
3FC0
0000
0000
ENDCHAR

STARTCHAR Uacute
ENCODING 218
SWIDTH 860 0
DWIDTH 12 0
BBX 12 14 0 -2
BITMAP
0000
0700
0E00
0000
79E0
79E0
79E0
79E0
79E0
79E0
79E0
3FC0
0000
0000
ENDCHAR

STARTCHAR Ucircumflex
ENCODING 219
SWIDTH 860 0
DWIDTH 12 0
BBX 12 14 0 -2
BITMAP
0000
0F00
1980
0000
79E0
79E0
79E0
79E0
79E0
79E0
79E0
3FC0
0000
0000
ENDCHAR

STARTCHAR Udieresis
ENCODING 220
SWIDTH 860 0
DWIDTH 12 0
BBX 12 14 0 -2
BITMAP
0000
79E0
79E0
0000
79E0
79E0
79E0
79E0
79E0
79E0
79E0
3FC0
0000
0000
ENDCHAR

STARTCHAR Yacute
ENCODING 221
SWIDTH 860 0
DWIDTH 12 0
BBX 12 14 0 -2
BITMAP
0000
0700
0E00
0000
79E0
79E0
79E0
39C0
1F80
0F00
0F00
0F00
0000
0000
ENDCHAR

STARTCHAR Thorn
ENCODING 222
SWIDTH 860 0
DWIDTH 12 0
BBX 12 14 0 -2
BITMAP
0000
0000
7E00
3C00
3FE0
3CF0
3CF0
3CF0
3FE0
3C00
3C00
7E00
0000
0000
ENDCHAR

STARTCHAR germandbls
ENCODING 223
SWIDTH 860 0
DWIDTH 12 0
BBX 12 14 0 -2
BITMAP
0000
0000
0000
0FC0
39E0
79E0
7BC0
79E0
79E0
79E0
79E0
7BC0
0000
0000
ENDCHAR

STARTCHAR agrave
ENCODING 224
SWIDTH 860 0
DWIDTH 12 0
BBX 12 14 0 -2
BITMAP
0000
0000
0E00
0700
0000
3FC0
01E0
3FE0
79E0
79E0
79E0
3EF0
0000
0000
ENDCHAR

STARTCHAR aacute
ENCODING 225
SWIDTH 860 0
DWIDTH 12 0
BBX 12 14 0 -2
BITMAP
0000
0000
01C0
0380
0000
3FC0
01E0
3FE0
79E0
79E0
79E0
3EF0
0000
0000
ENDCHAR

STARTCHAR acircumflex
ENCODING 226
SWIDTH 860 0
DWIDTH 12 0
BBX 12 14 0 -2
BITMAP
0000
0000
0F00
1980
0000
3FC0
01E0
3FE0
79E0
79E0
79E0
3EF0
0000
0000
ENDCHAR

STARTCHAR atilde
ENCODING 227
SWIDTH 860 0
DWIDTH 12 0
BBX 12 14 0 -2
BITMAP
0000
0000
3E60
73C0
0000
3FC0
01E0
3FE0
79E0
79E0
79E0
3EF0
0000
0000
ENDCHAR

STARTCHAR adieresis
ENCODING 228
SWIDTH 860 0
DWIDTH 12 0
BBX 12 14 0 -2
BITMAP
0000
0000
79E0
79E0
0000
3FC0
01E0
3FE0
79E0
79E0
79E0
3EF0
0000
0000
ENDCHAR

STARTCHAR aring
ENCODING 229
SWIDTH 860 0
DWIDTH 12 0
BBX 12 14 0 -2
BITMAP
0000
0F80
1CC0
0F80
0000
3FC0
01E0
3FE0
79E0
79E0
79E0
3EF0
0000
0000
ENDCHAR

STARTCHAR ae
ENCODING 230
SWIDTH 860 0
DWIDTH 12 0
BBX 12 14 0 -2
BITMAP
0000
0000
0000
0000
0000
7BE0
CE70
0E70
7FF0
EE00
EE30
7FE0
0000
0000
ENDCHAR

STARTCHAR ccedilla
ENCODING 231
SWIDTH 860 0
DWIDTH 12 0
BBX 12 14 0 -2
BITMAP
0000
0000
0000
0000
0000
3FC0
79E0
79E0
7800
79E0
79E0
3FC0
0F00
1C00
ENDCHAR

STARTCHAR egrave
ENCODING 232
SWIDTH 860 0
DWIDTH 12 0
BBX 12 14 0 -2
BITMAP
0000
0000
0E00
0700
0000
3FC0
79E0
79E0
7FE0
7800
79E0
3FC0
0000
0000
ENDCHAR

STARTCHAR eacute
ENCODING 233
SWIDTH 860 0
DWIDTH 12 0
BBX 12 14 0 -2
BITMAP
0000
0000
0700
0E00
0000
3FC0
79E0
79E0
7FE0
7800
79E0
3FC0
0000
0000
ENDCHAR

STARTCHAR ecircumflex
ENCODING 234
SWIDTH 860 0
DWIDTH 12 0
BBX 12 14 0 -2
BITMAP
0000
0000
0F00
1980
0000
3FC0
79E0
79E0
7FE0
7800
79E0
3FC0
0000
0000
ENDCHAR

STARTCHAR edieresis
ENCODING 235
SWIDTH 860 0
DWIDTH 12 0
BBX 12 14 0 -2
BITMAP
0000
0000
79E0
79E0
0000
3FC0
79E0
79E0
7FE0
7800
79E0
3FC0
0000
0000
ENDCHAR

STARTCHAR igrave
ENCODING 236
SWIDTH 860 0
DWIDTH 12 0
BBX 12 14 0 -2
BITMAP
0000
0000
1C00
0E00
0000
3F00
0F00
0F00
0F00
0F00
0F00
7FE0
0000
0000
ENDCHAR

STARTCHAR iacute
ENCODING 237
SWIDTH 860 0
DWIDTH 12 0
BBX 12 14 0 -2
BITMAP
0000
0000
0380
0700
0000
3F00
0F00
0F00
0F00
0F00
0F00
7FE0
0000
0000
ENDCHAR

STARTCHAR icircumflex
ENCODING 238
SWIDTH 860 0
DWIDTH 12 0
BBX 12 14 0 -2
BITMAP
0000
0000
1E00
3300
0000
3F00
0F00
0F00
0F00
0F00
0F00
7FE0
0000
0000
ENDCHAR

STARTCHAR idieresis
ENCODING 239
SWIDTH 860 0
DWIDTH 12 0
BBX 12 14 0 -2
BITMAP
0000
0000
7BC0
7BC0
0000
3F00
0F00
0F00
0F00
0F00
0F00
7FE0
0000
0000
ENDCHAR

STARTCHAR eth
ENCODING 240
SWIDTH 860 0
DWIDTH 12 0
BBX 12 14 0 -2
BITMAP
0000
0000
0000
7600
1C00
6700
07C0
3FE0
79E0
79E0
79E0
3FC0
0000
0000
ENDCHAR

STARTCHAR ntilde
ENCODING 241
SWIDTH 860 0
DWIDTH 12 0
BBX 12 14 0 -2
BITMAP
0000
0000
3CE0
73C0
0000
7BC0
7FE0
7DE0
79E0
79E0
79E0
79E0
0000
0000
ENDCHAR

STARTCHAR ograve
ENCODING 242
SWIDTH 860 0
DWIDTH 12 0
BBX 12 14 0 -2
BITMAP
0000
0000
0E00
0700
0000
3FC0
79E0
79E0
79E0
79E0
79E0
3FC0
0000
0000
ENDCHAR

STARTCHAR oacute
ENCODING 243
SWIDTH 860 0
DWIDTH 12 0
BBX 12 14 0 -2
BITMAP
0000
0000
0700
0E00
0000
3FC0
79E0
79E0
79E0
79E0
79E0
3FC0
0000
0000
ENDCHAR

STARTCHAR ocircumflex
ENCODING 244
SWIDTH 860 0
DWIDTH 12 0
BBX 12 14 0 -2
BITMAP
0000
0000
0F00
1980
0000
3FC0
79E0
79E0
79E0
79E0
79E0
3FC0
0000
0000
ENDCHAR

STARTCHAR otilde
ENCODING 245
SWIDTH 860 0
DWIDTH 12 0
BBX 12 14 0 -2
BITMAP
0000
0000
3E60
73C0
0000
3FC0
79E0
79E0
79E0
79E0
79E0
3FC0
0000
0000
ENDCHAR

STARTCHAR odieresis
ENCODING 246
SWIDTH 860 0
DWIDTH 12 0
BBX 12 14 0 -2
BITMAP
0000
0000
79E0
79E0
0000
3FC0
79E0
79E0
79E0
79E0
79E0
3FC0
0000
0000
ENDCHAR

STARTCHAR divide
ENCODING 247
SWIDTH 860 0
DWIDTH 12 0
BBX 12 14 0 -2
BITMAP
0000
0000
0000
0000
0600
0600
0000
7FE0
7FE0
0000
0600
0600
0000
0000
ENDCHAR

STARTCHAR oslash
ENCODING 248
SWIDTH 860 0
DWIDTH 12 0
BBX 12 14 0 -2
BITMAP
0000
0000
0000
0010
0020
3FC0
79E0
79E0
7BE0
7DE0
79E0
7FC0
2000
4000
ENDCHAR

STARTCHAR ugrave
ENCODING 249
SWIDTH 860 0
DWIDTH 12 0
BBX 12 14 0 -2
BITMAP
0000
0000
0E00
0700
0000
79E0
79E0
79E0
79E0
79E0
79E0
3FC0
0000
0000
ENDCHAR

STARTCHAR uacute
ENCODING 250
SWIDTH 860 0
DWIDTH 12 0
BBX 12 14 0 -2
BITMAP
0000
0000
0700
0E00
0000
79E0
79E0
79E0
79E0
79E0
79E0
3FC0
0000
0000
ENDCHAR

STARTCHAR ucircumflex
ENCODING 251
SWIDTH 860 0
DWIDTH 12 0
BBX 12 14 0 -2
BITMAP
0000
0000
0F00
1980
0000
79E0
79E0
79E0
79E0
79E0
79E0
3FC0
0000
0000
ENDCHAR

STARTCHAR udieresis
ENCODING 252
SWIDTH 860 0
DWIDTH 12 0
BBX 12 14 0 -2
BITMAP
0000
0000
79E0
79E0
0000
79E0
79E0
79E0
79E0
79E0
79E0
3FC0
0000
0000
ENDCHAR

STARTCHAR yacute
ENCODING 253
SWIDTH 860 0
DWIDTH 12 0
BBX 12 14 0 -2
BITMAP
0000
0000
0700
0E00
0000
79E0
79E0
79E0
79E0
3FE0
01E0
79E0
3FC0
0000
ENDCHAR

STARTCHAR thorn
ENCODING 254
SWIDTH 860 0
DWIDTH 12 0
BBX 12 14 0 -2
BITMAP
0000
0000
0000
3C00
3C00
3FE0
3CF0
3CF0
3CF0
3CF0
3FE0
3C00
3C00
0000
ENDCHAR

STARTCHAR ydieresis
ENCODING 255
SWIDTH 860 0
DWIDTH 12 0
BBX 12 14 0 -2
BITMAP
0000
0000
79E0
79E0
0000
79E0
79E0
79E0
79E0
3FE0
01E0
79E0
3FC0
0000
ENDCHAR
ENDFONT
